<?xml version="1.0" encoding="utf-8"?>
<!-- Generator: Adobe Illustrator 28.1.0, SVG Export Plug-In . SVG Version: 6.00 Build 0)  -->
<svg version="1.1" id="Layer_1" xmlns="http://www.w3.org/2000/svg" xmlns:xlink="http://www.w3.org/1999/xlink" x="0px" y="0px"
	 viewBox="0 0 100 100" style="enable-background:new 0 0 100 100;" xml:space="preserve">
<style type="text/css">
	.st0{fill:#FFFFFF;}
</style>
<path class="st0" d="M50.1,74.4L37.8,61.6c3.2-3.8,4.9-8.5,4.9-13.4c0-11.5-9.4-20.9-20.9-20.9S0.9,36.7,0.9,48.2
	s9.4,20.9,20.9,20.9c4.3,0,8.5-1.3,12-3.8l12.4,12.9c0.5,0.5,1.2,0.8,2,0.8c0.7,0,1.4-0.3,1.9-0.8C51.1,77.3,51.2,75.5,50.1,74.4z
	 M21.8,32.7c8.5,0,15.5,6.9,15.5,15.5s-6.9,15.5-15.5,15.5S6.3,56.7,6.3,48.2S13.3,32.7,21.8,32.7z"/>
</svg>
